<svg width="80" height="80" viewBox="0 0 130 78" fill="none" xmlns="http://www.w3.org/2000/svg">
    <path fill-rule="evenodd" clip-rule="evenodd"
          d="M90.2587 77.1869C111.765 77.1869 129.2 60.0944 129.2 39.0098C129.2 17.9251 111.765 0.832642 90.2587 0.832642C80.6202 0.832642 71.7995 4.26579 64.9996 9.95281C58.1997 4.26594 49.3792 0.832888 39.7408 0.832888C18.2343 0.832888 0.799927 17.9254 0.799927 39.01C0.799927 60.0947 18.2343 77.1871 39.7408 77.1871C49.3793 77.1871 58.2 73.754 64.9999 68.067C71.7998 73.7538 80.6203 77.1869 90.2587 77.1869Z"
          fill="#ED0006"/>
    <path fill-rule="evenodd" clip-rule="evenodd"
          d="M64.9999 68.0662C73.3723 61.0639 78.6812 50.6446 78.6812 39.0096C78.6812 27.3747 73.3723 16.9554 64.9999 9.95303C71.7998 4.2658 80.6207 0.83252 90.2594 0.83252C111.766 0.83252 129.2 17.925 129.2 39.0096C129.2 60.0943 111.766 77.1868 90.2594 77.1868C80.6207 77.1868 71.7998 73.7535 64.9999 68.0662Z"
          fill="#F9A000"/>
    <path fill-rule="evenodd" clip-rule="evenodd"
          d="M65.0003 68.0649C73.3728 61.0626 78.6817 50.6433 78.6817 39.0083C78.6817 27.3734 73.3728 16.9541 65.0003 9.95172C56.6279 16.9541 51.319 27.3734 51.319 39.0083C51.319 50.6433 56.6279 61.0626 65.0003 68.0649Z"
          fill="#FF5E00"/>
</svg>